<svg width="20" height="20" viewBox="0 0 20 20" fill="none" xmlns="http://www.w3.org/2000/svg">
<path id="Vector" d="M10 0C8.02219 0 6.08879 0.58649 4.4443 1.6853C2.79981 2.78412 1.51809 4.3459 0.761209 6.17316C0.00433286 8.00043 -0.1937 10.0111 0.192152 11.9509C0.578004 13.8907 1.53041 15.6725 2.92894 17.0711C4.32746 18.4696 6.10929 19.422 8.0491 19.8078C9.98891 20.1937 11.9996 19.9957 13.8268 19.2388C15.6541 18.4819 17.2159 17.2002 18.3147 15.5557C19.4135 13.9112 20 11.9778 20 10C19.9971 7.34874 18.9425 4.80691 17.0678 2.93218C15.1931 1.05745 12.6513 0.00294095 10 0ZM10 17.7778C8.4617 17.7778 6.95795 17.3216 5.6789 16.467C4.39985 15.6123 3.40296 14.3976 2.81427 12.9764C2.22559 11.5552 2.07157 9.99137 2.37167 8.48263C2.67178 6.97389 3.41254 5.58802 4.50028 4.50028C5.58803 3.41254 6.97389 2.67178 8.48263 2.37167C9.99137 2.07156 11.5552 2.22559 12.9764 2.81427C14.3976 3.40295 15.6124 4.39985 16.467 5.6789C17.3216 6.95795 17.7778 8.4617 17.7778 10C17.7756 12.0621 16.9554 14.0391 15.4973 15.4973C14.0391 16.9554 12.0621 17.7756 10 17.7778ZM13.8509 12.8898C13.2444 13.6979 12.399 14.2947 11.4345 14.5957C10.47 14.8967 9.43521 14.8867 8.47672 14.567C7.51823 14.2473 6.6846 13.6342 6.09388 12.8145C5.50317 11.9947 5.1853 11.0099 5.1853 9.99954C5.1853 8.98914 5.50317 8.00435 6.09388 7.18462C6.6846 6.36489 7.51823 5.75176 8.47672 5.43208C9.43521 5.11239 10.47 5.10233 11.4345 5.40334C12.399 5.70435 13.2444 6.30116 13.8509 7.10926C13.9418 7.22561 14.0085 7.3589 14.0473 7.50134C14.086 7.64378 14.096 7.79251 14.0766 7.93885C14.0573 8.08519 14.0089 8.22621 13.9344 8.35365C13.86 8.4811 13.7608 8.59243 13.6428 8.68114C13.5248 8.76985 13.3904 8.83416 13.2472 8.87031C13.1041 8.90646 12.9552 8.91373 12.8093 8.89169C12.6633 8.86966 12.5232 8.81876 12.3971 8.74196C12.2711 8.66517 12.1615 8.56403 12.075 8.44444C11.7485 8.00913 11.2933 7.68758 10.774 7.52533C10.2546 7.36309 9.6973 7.36838 9.18108 7.54045C8.66486 7.71252 8.21587 8.04265 7.89771 8.48408C7.57954 8.92551 7.40834 9.45586 7.40834 10C7.40834 10.5441 7.57954 11.0745 7.89771 11.5159C8.21587 11.9573 8.66486 12.2875 9.18108 12.4595C9.6973 12.6316 10.2546 12.6369 10.774 12.4747C11.2933 12.3124 11.7485 11.9909 12.075 11.5556C12.1608 11.4342 12.2701 11.3313 12.3963 11.253C12.5226 11.1746 12.6633 11.1224 12.8101 11.0993C12.957 11.0763 13.1069 11.083 13.2511 11.119C13.3953 11.1549 13.5308 11.2195 13.6496 11.3087C13.7684 11.398 13.8681 11.5102 13.9428 11.6387C14.0175 11.7671 14.0657 11.9093 14.0844 12.0567C14.1032 12.2041 14.0922 12.3538 14.0521 12.4969C14.012 12.64 13.9436 12.7736 13.8509 12.8898Z" fill="white"/>
</svg>
