<?xml version="1.0" encoding="iso-8859-1"?>
<!-- Uploaded to: SVG Repo, www.svgrepo.com, Generator: SVG Repo Mixer Tools -->
<svg fill="#000000" height="800px" width="800px" version="1.1" id="Layer_1" xmlns="http://www.w3.org/2000/svg" xmlns:xlink="http://www.w3.org/1999/xlink" 
	 viewBox="0 0 367.136 367.136" xml:space="preserve">
<path d="M336.554,86.871c-11.975-18.584-27.145-34.707-44.706-47.731L330.801,0H217.436v113.91L270.4,60.691
	c40.142,28.131,65.042,74.724,65.042,124.571c0,83.744-68.131,151.874-151.874,151.874S31.694,269.005,31.694,185.262
	c0-20.479,4.002-40.34,11.895-59.03l-27.637-11.671c-9.461,22.403-14.258,46.19-14.258,70.701
	c0,100.286,81.588,181.874,181.874,181.874s181.874-81.588,181.874-181.874C365.442,150.223,355.453,116.201,336.554,86.871z"/>
</svg>